<svg width="205" height="147" viewBox="0 0 205 147" fill="none" xmlns="http://www.w3.org/2000/svg">
<path d="M203.492 50.28C202.202 48.12 199.712 47.29 197.082 46.41C195.062 45.73 192.782 44.97 191.702 43.71C190.832 42.7 190.252 41.66 189.572 40.46C188.172 37.99 186.422 34.92 181.652 31.36C177.772 28.47 173.652 26.35 169.472 25.05C169.852 23.58 170.722 21.57 172.672 19.37C176.562 14.97 177.522 12.9 177.522 12.9C177.522 12.9 176.242 11.82 172.162 12.9C170.682 13.29 168.672 14.25 166.702 15.3C168.792 12.08 169.812 10.07 169.842 8.5C169.872 7.21 169.162 6.03 168.002 5.43C163.902 3.31 146.942 10.8 138.062 16.86L112.382 0L82.292 20.61C79.882 19.53 77.382 18.63 74.832 18.01C63.052 15.13 44.842 17.65 36.512 25.98C34.092 28.4 32.982 30.39 31.902 32.32C31.162 33.65 30.392 35.03 29.102 36.72C27.442 38.78 15.332 40.15 10.162 40.74C7.83197 41 5.81197 41.23 4.21197 41.48C2.92197 41.68 -0.0880253 42.77 0.00197468 48.57C0.171975 59.6 10.192 82.26 27.932 84.45C33.352 85.12 37.452 84.99 40.752 84.89C43.252 84.81 45.182 84.75 46.712 85.08C48.312 90.56 47.662 118.15 46.042 142.9L45.832 146.1H68.132V135.35H83.202V146.1H139.652V135.35H154.722V146.1H175.922L176.632 82.13C180.222 81.34 186.952 79.52 192.012 76.21C199.092 71.58 206.392 55.11 203.502 50.29L203.492 50.28ZM188.722 71.17C182.712 75.1 173.262 76.67 173.172 76.68L170.682 77.09L169.982 140.09H160.722V129.34H138.932V97.98H83.562V129.34H62.142V140.09H52.232C52.542 134.91 53.132 124.18 53.442 113.45C53.692 104.69 53.712 97.63 53.482 92.47C53.102 83.57 52.192 80.57 49.582 79.65C46.862 78.69 44.092 78.77 40.572 78.88C37.482 78.97 33.632 79.09 28.672 78.48C19.562 77.36 13.632 68.85 10.902 63.88C9.95197 62.15 9.17197 60.46 8.53197 58.85C11.882 56.93 14.392 55.81 15.732 51.02C16.062 49.83 16.052 47.79 15.972 46.08C24.952 44.93 31.412 43.56 33.862 40.36C35.422 38.32 36.332 36.68 37.142 35.24C38.132 33.46 38.922 32.05 40.752 30.22C45.962 25.01 58.252 22.04 68.632 23.05C71.252 25.8 76.032 30.06 76.752 34.2C78.412 43.85 67.992 51.57 69.532 57.59C71.062 63.61 79.492 74.09 86.892 70.68C93.562 67.61 99.732 49.27 98.162 40.28C98.372 40.54 98.582 40.81 98.772 41.07C105.772 50.62 111.352 69.56 111.412 69.75L114.702 81.01L117.222 69.55C117.302 69.19 125.252 33.75 140.252 22.65C146.602 17.95 156.132 13.76 161.742 11.93C160.792 13.4 159.742 14.93 159.042 15.95C157.392 18.36 156.502 19.66 156.132 20.52C156.042 20.73 155.902 20.96 155.762 21.21C155.082 22.41 153.812 24.65 155.052 26.88C156.282 29.1 158.992 29.47 160.932 29.55C164.942 29.73 171.182 31.02 178.072 36.16C181.832 38.96 183.062 41.13 184.362 43.41C185.122 44.76 185.912 46.15 187.162 47.6C188.192 48.8 189.472 49.67 190.812 50.36C190.852 51.13 191.402 57.07 197.232 57.7C195.652 62.37 192.362 68.8 188.742 71.17H188.722Z" fill="#251749"/>
</svg>
